<svg width="34" height="53" viewBox="0 0 34 53" fill="none" xmlns="http://www.w3.org/2000/svg">
<rect x="0.506933" y="51.1602" width="50.6582" height="32.2819" rx="9.5" transform="rotate(-89.1999 0.506933 51.1602)" fill="black" stroke="black"/>
<rect x="3.6521" y="5.18582" width="27.2761" height="41.1551" rx="5" transform="rotate(0.80012 3.6521 5.18582)" fill="white"/>
<g filter="url(#filter0_d)">
<rect x="6.23706" y="17.2267" width="22.0211" height="20.5776" rx="5" transform="rotate(0.80012 6.23706 17.2267)" fill="#FF7C7C"/>
</g>
<g filter="url(#filter1_d)">
<rect x="6.177" y="21.5132" width="22.0211" height="20.5776" rx="5" transform="rotate(0.80012 6.177 21.5132)" fill="#6DDDC2"/>
</g>
<g filter="url(#filter2_d)">
<path d="M6.04737 30.7993C6.08593 28.0382 8.35555 25.8311 11.1167 25.8696L23.1366 26.0375C25.8978 26.0761 28.1049 28.3457 28.0663 31.1068L27.8488 46.6829L5.82984 46.3754L6.04737 30.7993Z" fill="#6150C7"/>
</g>
<ellipse cx="16.8063" cy="48.8867" rx="2.25216" ry="1.92915" transform="rotate(0.80012 16.8063 48.8867)" fill="white"/>
<ellipse cx="23.3281" cy="29.8988" rx="2.00192" ry="1.7148" transform="rotate(0.80012 23.3281 29.8988)" fill="#F2C31B"/>
<ellipse cx="20.5759" cy="29.8604" rx="2.00192" ry="1.7148" transform="rotate(0.80012 20.5759 29.8604)" fill="#FC3D3D" fill-opacity="0.8"/>
<defs>
<filter id="filter0_d" x="2.01904" y="9.29599" width="30.1676" height="28.7444" filterUnits="userSpaceOnUse" color-interpolation-filters="sRGB">
<feFlood flood-opacity="0" result="BackgroundImageFix"/>
<feColorMatrix in="SourceAlpha" type="matrix" values="0 0 0 0 0 0 0 0 0 0 0 0 0 0 0 0 0 0 127 0" result="hardAlpha"/>
<feOffset dy="-4"/>
<feGaussianBlur stdDeviation="2"/>
<feComposite in2="hardAlpha" operator="out"/>
<feColorMatrix type="matrix" values="0 0 0 0 0 0 0 0 0 0 0 0 0 0 0 0 0 0 0.25 0"/>
<feBlend mode="normal" in2="BackgroundImageFix" result="effect1_dropShadow"/>
<feBlend mode="normal" in="SourceGraphic" in2="effect1_dropShadow" result="shape"/>
</filter>
<filter id="filter1_d" x="1.95898" y="13.5826" width="30.1676" height="28.7444" filterUnits="userSpaceOnUse" color-interpolation-filters="sRGB">
<feFlood flood-opacity="0" result="BackgroundImageFix"/>
<feColorMatrix in="SourceAlpha" type="matrix" values="0 0 0 0 0 0 0 0 0 0 0 0 0 0 0 0 0 0 127 0" result="hardAlpha"/>
<feOffset dy="-4"/>
<feGaussianBlur stdDeviation="2"/>
<feComposite in2="hardAlpha" operator="out"/>
<feColorMatrix type="matrix" values="0 0 0 0 0 0 0 0 0 0 0 0 0 0 0 0 0 0 0.25 0"/>
<feBlend mode="normal" in2="BackgroundImageFix" result="effect1_dropShadow"/>
<feBlend mode="normal" in="SourceGraphic" in2="effect1_dropShadow" result="shape"/>
</filter>
<filter id="filter2_d" x="1.82983" y="17.8691" width="30.237" height="28.8137" filterUnits="userSpaceOnUse" color-interpolation-filters="sRGB">
<feFlood flood-opacity="0" result="BackgroundImageFix"/>
<feColorMatrix in="SourceAlpha" type="matrix" values="0 0 0 0 0 0 0 0 0 0 0 0 0 0 0 0 0 0 127 0" result="hardAlpha"/>
<feOffset dy="-4"/>
<feGaussianBlur stdDeviation="2"/>
<feComposite in2="hardAlpha" operator="out"/>
<feColorMatrix type="matrix" values="0 0 0 0 0 0 0 0 0 0 0 0 0 0 0 0 0 0 0.25 0"/>
<feBlend mode="normal" in2="BackgroundImageFix" result="effect1_dropShadow"/>
<feBlend mode="normal" in="SourceGraphic" in2="effect1_dropShadow" result="shape"/>
</filter>
</defs>
</svg>
